HIERARCHY
ROOT Hips
{
 OFFSET 0.000000 0.000000 0.000000
 CHANNELS 6 Xposition Yposition Zposition Yrotation Xrotation Zrotation
 JOINT Chest
 {
  OFFSET 0.000000 9.585900 0.002600
  CHANNELS 3 Yrotation Xrotation Zrotation
  JOINT Chest2
  {
   OFFSET 0.000000 9.601200 -0.005300
   CHANNELS 3 Yrotation Xrotation Zrotation
   JOINT Chest3
   {
    OFFSET 0.000000 9.561800 0.000000
    CHANNELS 3 Yrotation Xrotation Zrotation
    JOINT Chest4
    {
     OFFSET 0.000000 9.552100 0.000000
     CHANNELS 3 Yrotation Xrotation Zrotation
     JOINT Neck
     {
      OFFSET 0.000000 14.453000 0.000000
      CHANNELS 3 Yrotation Xrotation Zrotation
      JOINT Head
      {
       OFFSET 0.000000 8.936500 -0.011300
       CHANNELS 3 Yrotation Xrotation Zrotation
       End Site
       {
        OFFSET 0.000000 17.073600 -0.006000
       }
      }
     }
     JOINT RightCollar
     {
      OFFSET -2.921100 9.558500 0.000000
      CHANNELS 3 Yrotation Xrotation Zrotation
      JOINT RightShoulder
      {
       OFFSET -13.519700 0.000000 0.000000
       CHANNELS 3 Yrotation Xrotation Zrotation
       JOINT RightElbow
       {
        OFFSET 0.000000 -29.696600 0.000000
        CHANNELS 3 Yrotation Xrotation Zrotation
        JOINT RightWrist
        {
         OFFSET 0.000000 -24.004700 0.000000
         CHANNELS 3 Yrotation Xrotation Zrotation
         End Site
         {
          OFFSET 0.000000 -17.728500 0.000000
         }
        }
       }
      }
     }
     JOINT LeftCollar
     {
      OFFSET 2.921100 9.558500 0.000000
      CHANNELS 3 Yrotation Xrotation Zrotation
      JOINT LeftShoulder
      {
       OFFSET 13.519700 0.000000 0.000000
       CHANNELS 3 Yrotation Xrotation Zrotation
       JOINT LeftElbow
       {
        OFFSET 0.000000 -29.696600 0.000000
        CHANNELS 3 Yrotation Xrotation Zrotation
        JOINT LeftWrist
        {
         OFFSET 0.000000 -24.004700 0.000000
         CHANNELS 3 Yrotation Xrotation Zrotation
         End Site
         {
          OFFSET 0.000000 -17.728500 0.000000
         }
        }
       }
      }
     }
    }
   }
  }
 }
 JOINT RightHip
 {
  OFFSET -7.771700 -0.012900 -0.001300
  CHANNELS 3 Yrotation Xrotation Zrotation
  JOINT RightKnee
  {
   OFFSET 0.000000 -40.869800 0.001200
   CHANNELS 3 Yrotation Xrotation Zrotation
   JOINT RightAnkle
   {
    OFFSET 0.000000 -39.717900 0.002100
    CHANNELS 3 Yrotation Xrotation Zrotation
    JOINT RightToe
    {
     OFFSET 0.000000 -4.965400 11.033500
     CHANNELS 3 Yrotation Xrotation Zrotation
     End Site
     {
      OFFSET 0.000000 -1.423100 5.872300
     }
    }
   }
  }
 }
 JOINT LeftHip
 {
  OFFSET 7.771700 -0.012900 -0.001300
  CHANNELS 3 Yrotation Xrotation Zrotation
  JOINT LeftKnee
  {
   OFFSET 0.000000 -40.869800 0.001200
   CHANNELS 3 Yrotation Xrotation Zrotation
   JOINT LeftAnkle
   {
    OFFSET 0.000000 -39.717900 0.002100
    CHANNELS 3 Yrotation Xrotation Zrotation
    JOINT LeftToe
    {
     OFFSET 0.000000 -4.965400 11.033500
     CHANNELS 3 Yrotation Xrotation Zrotation
     End Site
     {
      OFFSET 0.000000 -1.423100 5.872300
     }
    }
   }
  }
 }
}
MOTION
Frames: 5
Frame Time: 0.008333
-224.430358 57.711280 -75.861993 159.234687 -6.235805 0.193549 2.829187 5.073448 0.865652 0.093069 0.173612 0.002173 0.159059 0.308142 0.009260 2.540259 4.892378 0.249253 0.876819 17.836547 0.103828 1.580027 -2.668255 -0.098658 2.253930 6.652395 1.578495 2.219481 -3.849006 -11.850089 61.735199 -83.425603 -31.623320 -0.945968 6.065593 -33.225095 -4.034439 6.817101 -1.725688 10.604856 -1.227396 4.309545 51.601255 -74.500967 -90.225902 -4.298342 9.884868 7.743051 -14.180360 -65.623976 8.127887 -35.062558 72.398679 -36.114950 -4.055570 -7.246022 -0.651950 -0.096283 0.675874 -0.043085 -1.130210 -67.818072 17.879705 43.005694 65.347563 36.471635 -17.671546 -10.266863 2.760314 -0.312213 -0.856899 -0.132520
-224.434615 57.711308 -75.863488 159.236826 -6.240850 0.196754 2.839196 5.075206 0.849677 0.090622 0.174872 0.005009 0.160186 0.309191 0.009022 2.552094 4.898574 0.245779 0.880869 17.840551 0.095506 1.590165 -2.660634 -0.115329 2.244141 6.649757 1.573562 2.216938 -3.855209 -11.849692 61.628905 -83.439325 -31.524324 -0.946647 6.064741 -33.222821 -4.046843 6.818977 -1.727650 10.606366 -1.234375 4.319981 51.588485 -74.506777 -90.213319 -4.276125 9.873618 7.760764 -14.144483 -65.621524 8.092883 -35.045982 72.403453 -36.100697 -4.043847 -7.242014 -0.636941 -0.113400 0.675423 -0.049139 -1.116426 -67.817152 17.863667 42.984130 65.361189 36.452377 -17.670853 -10.263539 2.769125 -0.310929 -0.860669 -0.135802
-224.436541 57.711197 -75.863557 159.239343 -6.244461 0.184764 2.846492 5.075533 0.853048 0.091156 0.175514 0.004900 0.161163 0.310241 0.008781 2.561966 4.905635 0.242820 0.876275 17.838241 0.097940 1.612926 -2.653247 -0.148066 2.228387 6.642579 1.584543 2.217354 -3.854116 -11.867383 61.591882 -83.438483 -31.490244 -0.939286 6.055060 -33.204310 -4.061846 6.815579 -1.716672 10.615581 -1.233803 4.314188 51.576046 -74.507530 -90.204757 -4.280109 9.871641 7.761675 -14.141884 -65.616691 8.092053 -35.050649 72.404331 -36.095561 -4.036934 -7.236757 -0.633273 -0.118377 0.672071 -0.052298 -1.142970 -67.817871 17.889690 42.987599 65.364674 36.457348 -17.667122 -10.262929 2.774324 -0.296971 -0.859390 -0.136268
-224.439446 57.710958 -75.863409 159.241842 -6.246264 0.178787 2.853873 5.075134 0.850933 0.086740 0.176414 0.009357 0.166739 0.310851 0.004014 2.569469 4.912253 0.239863 0.872721 17.835023 0.100005 1.637565 -2.649511 -0.180916 2.218003 6.640326 1.585331 2.216585 -3.855664 -11.876927 61.646056 -83.421978 -31.532342 -0.958479 6.034419 -33.211029 -4.073744 6.812840 -1.706402 10.621057 -1.234545 4.310989 51.609892 -74.499985 -90.216671 -4.296373 9.879912 7.734996 -14.131994 -65.615129 8.082745 -35.044038 72.406135 -36.082573 -4.037349 -7.233066 -0.628441 -0.127659 0.671384 -0.055697 -1.156818 -67.819644 17.903264 42.991389 65.366354 36.463013 -17.683225 -10.262169 2.774133 -0.282098 -0.861221 -0.131502
-224.442048 57.710878 -75.865029 159.233467 -6.259967 0.177103 2.871851 5.088099 0.845291 0.083370 0.176608 0.015010 0.171042 0.312015 -0.002012 2.568208 4.914253 0.243721 0.888007 17.839420 0.085779 1.649977 -2.653697 -0.201355 2.222403 6.638629 1.578637 2.210479 -3.851014 -11.883991 61.650664 -83.422266 -31.532026 -0.950733 6.040708 -33.215948 -4.075719 6.814017 -1.709562 10.618348 -1.239363 4.319078 51.640503 -74.497526 -90.232683 -4.301747 9.886254 7.720876 -14.111216 -65.601620 8.071474 -35.034998 72.405592 -36.072519 -4.040942 -7.229516 -0.624075 -0.135911 0.671217 -0.058540 -1.149294 -67.807557 17.905319 43.003053 65.372457 36.472422 -17.680240 -10.272122 2.779710 -0.285194 -0.857869 -0.131857
